<svg xmlns="http://www.w3.org/2000/svg" fill="#009588" viewBox="0 0 340 340"><path d="M133.278 18.255 115.293.266 77.787.279 77.504 0 2.999 74.509l69.732 69.66h37.552L40.586 74.47l55.68-55.68 18.232 18.242-37.47 37.477h.533l69.663 69.66h37.558L115.079 74.47h-.461l18.66-18.66 88.226 88.36h37.555L152.055 37.032l18.238-18.242 125.239 125.378h37.558L189.324.266l-37.509.013-.283-.279zm-5.879 165.478c1.858.617 2.786 1.429 2.786 2.436 0 .52-.309 1.293-.945 2.316s-1.153 1.536-1.565 1.536c-.075 0-.37-.11-.89-.331-1.718-.861-3.488-1.286-5.31-1.286-2.348 0-4.098.753-5.258 2.26-1.153 1.507-1.734 3.865-1.734 7.073 0 3.277.542 5.68 1.621 7.206s2.874 2.293 5.371 2.293c2.046 0 3.962-.451 5.751-1.341l.477-.221.422-.117c.481 0 1.02.484 1.617 1.455s.896 1.731.896 2.293c0 .744-.542 1.387-1.624 1.926s-2.361.942-3.855 1.202c-1.487.263-2.796.393-3.913.393-4.735 0-8.246-1.215-10.535-3.637-2.293-2.416-3.433-6.18-3.433-11.285 0-5.138 1.198-8.944 3.602-11.402s5.859-3.686 10.366-3.686c2.241 0 4.287.309 6.151.919m15.643 6.988c-1.003 1.546-1.504 3.904-1.504 7.067 0 3.17.5 5.534 1.504 7.102 1.013 1.562 2.553 2.345 4.644 2.345 2.124 0 3.683-.783 4.689-2.345 1.013-1.569 1.51-3.933 1.51-7.102 0-3.163-.497-5.521-1.51-7.067-1.007-1.549-2.566-2.322-4.689-2.322-2.091 0-3.631.773-4.644 2.322m14.617-4.053c2.254 2.569 3.381 6.297 3.381 11.178s-1.127 8.596-3.381 11.149-5.54 3.829-9.866 3.829c-4.358 0-7.671-1.283-9.944-3.858-2.277-2.569-3.407-6.278-3.407-11.12 0-4.881 1.143-8.609 3.433-11.178s5.599-3.855 9.918-3.855c4.326 0 7.612 1.286 9.866 3.855m18.135 13.607c-1.754.688-2.624 1.913-2.624 3.663 0 1 .292 1.796.89 2.371s1.471.867 2.624.867a6.8 6.8 0 0 0 3.608-1.003 9.048 9.048 0 0 0 2.767-2.627v-4.358c-3.092.036-5.514.403-7.265 1.088m11.373-15.033c1.916 1.621 2.881 3.848 2.881 6.677v11.237c0 2.569.107 4.43.331 5.589l.341 2.124c0 .52-.62.919-1.851 1.198s-2.309.419-3.241.419c-.594 0-1.026-.266-1.286-.809a7.73 7.73 0 0 1-.585-1.76l-.253-1.283c-.776 1-1.897 1.952-3.355 2.845-1.448.896-3.218 1.341-5.307 1.341-2.832 0-4.991-.734-6.482-2.205s-2.231-3.475-2.231-6.008c0-6.856 5.641-10.301 16.93-10.34v-2.121c0-2.497-1.656-3.748-4.972-3.748-1.413 0-2.644.162-3.689.477s-1.942.65-2.708 1.003-1.208.533-1.319.533c-.481 0-1.026-.5-1.65-1.507-.607-1.007-.919-1.793-.919-2.348 0-.598.481-1.182 1.426-1.76.952-.575 2.241-1.052 3.884-1.426s3.41-.562 5.313-.562c3.91 0 6.823.815 8.742 2.432m24.702-1.675c1.692.542 2.543 1.26 2.543 2.15 0 .598-.263 1.4-.786 2.403s-.984 1.51-1.396 1.51c-.11 0-.64-.214-1.591-.64-.952-.432-2.059-.643-3.322-.643-1.117 0-2.013.211-2.686.643-.672.425-1.003 1.052-1.003 1.871 0 .783.227 1.435.698 1.952a4.98 4.98 0 0 0 1.65 1.234l3.238 1.396c2.195.854 3.806 1.884 4.836 3.072 1.02 1.192 1.536 2.907 1.536 5.144 0 2.721-.971 4.936-2.907 6.645-1.939 1.715-4.508 2.575-7.71 2.575-1.494 0-2.933-.166-4.335-.503-1.396-.334-2.54-.792-3.439-1.374-.89-.572-1.338-1.179-1.338-1.815 0-.591.315-1.364.955-2.316.63-.952 1.172-1.426 1.617-1.426.188 0 .542.149 1.059.448l2.406.978c.708.244 1.562.364 2.569.364 2.682 0 4.027-1.042 4.027-3.131 0-1.042-.393-1.848-1.172-2.403-.789-.555-2.091-1.153-3.917-1.786-2.195-.747-3.894-1.744-5.082-2.994-1.195-1.244-1.796-3.04-1.796-5.391 0-2.682.9-4.813 2.692-6.401 1.783-1.582 4.17-2.371 7.151-2.371 1.971 0 3.806.266 5.505.809m17.127-5.897v5.534h3.462c.526 0 .909.188 1.143.559.244.373.364.991.364 1.845v.841c0 .854-.12 1.471-.364 1.841-.234.373-.617.562-1.143.562h-3.462v15.312c0 1.117.201 1.906.614 2.371.409.471 1.01.701 1.786.701.373 0 .731-.049 1.062-.14.338-.091.598-.143.786-.143.445 0 .812.477 1.088 1.429s.419 1.647.419 2.091c0 1.569-1.621 2.348-4.862 2.348-2.387 0-4.284-.679-5.699-2.039s-2.127-3.53-2.127-6.508v-15.423h-1.617c-.526 0-.893-.198-1.117-.588s-.334-.997-.334-1.815v-.841c0-.818.11-1.426.334-1.815s.591-.588 1.117-.588h1.617l.675-5.534c.182-1.042 1.046-1.562 2.569-1.562h1.338c1.569 0 2.351.52 2.351 1.562m-81.481 71.413v19.109c0 1.049-.974 1.569-2.91 1.569h-1.111c-1.939 0-2.91-.52-2.91-1.569v-18.157c0-2.799-1.361-4.196-4.079-4.196-1.978 0-3.728 1.14-5.255 3.41v18.943c0 1.049-.987 1.569-2.965 1.569h-1.055c-1.975 0-2.962-.52-2.962-1.569v-18.157c0-2.799-1.364-4.196-4.082-4.196a4.93 4.93 0 0 0-3.322 1.231c-.952.818-1.598 1.569-1.929 2.234v18.888c0 1.049-.991 1.569-2.962 1.569h-1.062c-1.978 0-2.965-.52-2.965-1.569v-18.436c0-2.497-.11-4.316-.334-5.453l-.338-2.095c0-.52.617-.919 1.851-1.205 1.228-.276 2.309-.412 3.241-.412.588 0 1.02.257 1.283.776.257.526.455 1.075.585 1.65l.253 1.205c.968-1.195 2.186-2.192 3.657-2.991a9.77 9.77 0 0 1 4.725-1.202c3.91 0 6.446 1.452 7.596 4.358.978-1.228 2.231-2.264 3.774-3.098 1.552-.841 3.183-1.26 4.894-1.26 5.592 0 8.382 3.02 8.382 9.054m15.144-1.146c-1.007 1.549-1.507 3.904-1.507 7.07s.5 5.537 1.507 7.099 2.549 2.348 4.644 2.348c2.121 0 3.683-.786 4.689-2.348s1.507-3.93 1.507-7.099-.497-5.521-1.507-7.07c-1.007-1.543-2.569-2.316-4.689-2.316-2.095 0-3.634.773-4.644 2.316m14.614-4.053c2.251 2.572 3.384 6.3 3.384 11.181s-1.133 8.593-3.384 11.149-5.544 3.822-9.863 3.822c-4.361 0-7.671-1.28-9.951-3.855-2.27-2.569-3.4-6.278-3.4-11.116 0-4.881 1.14-8.609 3.429-11.181s5.602-3.852 9.921-3.852 7.609 1.283 9.863 3.852m33.114-2.01v18.498c0 2.569.11 4.436.334 5.589l.341 2.124c0 .523-.611.922-1.822 1.198s-2.283.422-3.215.422a1.36 1.36 0 0 1-1.338-.841 8.25 8.25 0 0 1-.591-1.76l-.25-1.254c-.968 1.228-2.205 2.234-3.712 3.014-1.513.786-3.085 1.172-4.725 1.172-5.699 0-8.548-3.014-8.548-9.048v-19.115c0-1.042.987-1.565 2.959-1.565h1.062c1.978 0 2.965.523 2.965 1.565v18.164c0 2.793 1.396 4.189 4.189 4.189 1.081 0 2.098-.334 3.046-1.003a9.06 9.06 0 0 0 2.374-2.462v-18.888c0-1.042.971-1.565 2.91-1.565h1.111c1.939 0 2.91.523 2.91 1.565m31.461 7.21v19.109c0 1.049-.971 1.569-2.91 1.569h-1.107c-1.942 0-2.913-.52-2.913-1.569v-18.157c0-1.341-.351-2.377-1.062-3.101s-1.77-1.094-3.183-1.094c-1.078 0-2.098.341-3.049 1.007a8.426 8.426 0 0 0-2.316 2.458v18.888c0 1.049-.984 1.569-2.965 1.569h-1.059c-1.975 0-2.959-.52-2.959-1.569v-18.436c0-2.497-.114-4.316-.338-5.453l-.338-2.095c0-.52.617-.919 1.845-1.205 1.231-.276 2.306-.412 3.244-.412.594 0 1.023.257 1.286.776.26.526.451 1.075.585 1.65l.25 1.205c1.003-1.231 2.267-2.238 3.774-3.02s3.085-1.172 4.725-1.172c5.66 0 8.489 3.02 8.489 9.054m15.484-14.197v5.534h3.462c.523 0 .909.188 1.146.555.24.377.364.994.364 1.848v.835c0 .861-.123 1.478-.364 1.845-.237.377-.624.562-1.146.562h-3.462v15.312c0 1.117.201 1.906.614 2.374s1.003.698 1.789.698c.37 0 .727-.045 1.059-.136.338-.097.598-.143.786-.143.445 0 .809.474 1.088 1.426s.416 1.65.416 2.095c0 1.569-1.617 2.348-4.858 2.348-2.387 0-4.284-.679-5.699-2.039s-2.127-3.53-2.127-6.511v-15.423h-1.617c-.526 0-.896-.195-1.12-.591-.218-.39-.328-.991-.328-1.815v-.835c0-.818.11-1.426.328-1.815.224-.396.594-.588 1.12-.588h1.617l.675-5.534c.182-1.042 1.042-1.562 2.569-1.562h1.341c1.562 0 2.348.52 2.348 1.562m19.446 22.604c-1.754.688-2.627 1.906-2.627 3.663 0 1.003.296 1.796.896 2.371.591.578 1.471.867 2.621.867a6.78 6.78 0 0 0 3.608-1.007 9 9 0 0 0 2.764-2.627V256.4c-3.095.042-5.508.406-7.262 1.094m11.373-15.033c1.919 1.617 2.877 3.845 2.877 6.677v11.233c0 2.569.114 4.433.331 5.589l.344 2.121c0 .526-.62.926-1.851 1.205s-2.312.419-3.241.419a1.32 1.32 0 0 1-1.283-.809 7.623 7.623 0 0 1-.591-1.76l-.25-1.286c-.776 1-1.897 1.952-3.355 2.848-1.448.896-3.218 1.341-5.303 1.341-2.835 0-4.995-.734-6.485-2.205s-2.238-3.475-2.238-6.011c0-6.852 5.648-10.298 16.933-10.337v-2.121c0-2.497-1.656-3.748-4.969-3.748-1.416 0-2.647.162-3.692.474-1.039.318-1.942.653-2.708 1.007s-1.205.533-1.312.533c-.487 0-1.033-.503-1.653-1.513-.607-1-.916-1.786-.916-2.341 0-.598.474-1.185 1.419-1.76.955-.581 2.247-1.059 3.887-1.429s3.407-.559 5.31-.559c3.91 0 6.82.812 8.746 2.432m17.858-.586V268.2c0 1.042-.991 1.562-2.965 1.562h-1.062c-1.978 0-2.959-.52-2.959-1.562v-26.325c0-1.042.981-1.562 2.959-1.562h1.062c1.975 0 2.965.52 2.965 1.562m.055-12.743v4.082c0 .523-.237.913-.698 1.176-.471.257-1.224.39-2.267.39h-1.228c-1.046 0-1.796-.133-2.267-.39a1.27 1.27 0 0 1-.695-1.176v-4.082c0-1.042.984-1.562 2.962-1.562h1.228c1.978 0 2.965.52 2.965 1.562m31.292 19.952v19.109c0 1.049-.971 1.569-2.903 1.569h-1.114c-1.942 0-2.91-.52-2.91-1.569v-18.157c0-1.341-.357-2.377-1.065-3.101s-1.77-1.094-3.183-1.094c-1.078 0-2.098.341-3.049 1.007a8.53 8.53 0 0 0-2.319 2.458v18.888c0 1.049-.981 1.569-2.962 1.569h-1.062c-1.968 0-2.959-.52-2.959-1.569v-18.436c0-2.497-.11-4.316-.334-5.453l-.338-2.095c0-.52.617-.919 1.845-1.205 1.231-.276 2.306-.412 3.244-.412.591 0 1.023.257 1.286.776.257.526.455 1.075.585 1.65l.25 1.205c1.003-1.231 2.264-2.238 3.774-3.02s3.082-1.172 4.725-1.172c5.657 0 8.489 3.02 8.489 9.054m-209.956 49.083c1.858.614 2.786 1.429 2.786 2.432 0 .523-.309 1.293-.945 2.319s-1.153 1.536-1.565 1.536c-.075 0-.37-.11-.89-.331-1.718-.861-3.488-1.286-5.31-1.286-2.348 0-4.098.753-5.258 2.26-1.153 1.507-1.734 3.865-1.734 7.067 0 3.283.542 5.686 1.621 7.213s2.874 2.293 5.371 2.293c2.046 0 3.962-.451 5.751-1.341l.477-.221.422-.117c.481 0 1.02.484 1.617 1.455s.896 1.731.896 2.293c0 .744-.542 1.387-1.624 1.926s-2.361.942-3.855 1.202c-1.487.263-2.796.393-3.913.393-4.735 0-8.246-1.215-10.535-3.637-2.293-2.416-3.433-6.18-3.433-11.285 0-5.144 1.198-8.944 3.602-11.402s5.859-3.686 10.366-3.686c2.241 0 4.287.309 6.151.919m15.643 6.983c-1.003 1.549-1.504 3.907-1.504 7.067 0 3.173.5 5.534 1.504 7.099 1.013 1.569 2.553 2.351 4.644 2.351 2.124 0 3.683-.783 4.689-2.351 1.013-1.565 1.51-3.926 1.51-7.099 0-3.16-.497-5.518-1.51-7.067-1.007-1.546-2.566-2.322-4.689-2.322-2.091 0-3.631.776-4.644 2.322m14.617-4.05c2.254 2.569 3.381 6.297 3.381 11.178s-1.127 8.593-3.381 11.149c-2.254 2.549-5.54 3.829-9.866 3.829-4.358 0-7.671-1.289-9.944-3.858s-3.407-6.278-3.407-11.12c0-4.881 1.143-8.609 3.433-11.178s5.599-3.855 9.918-3.855c4.326 0 7.612 1.286 9.866 3.855m16.851-14.757v32.248c0 1.117.192 1.913.585 2.374.393.471.978.701 1.763.701a4.22 4.22 0 0 0 1.088-.14c.354-.091.604-.143.753-.143.448 0 .812.474 1.091 1.426s.422 1.65.422 2.095c0 1.569-1.624 2.348-4.862 2.348-2.393 0-4.29-.679-5.703-2.039-1.419-1.361-2.124-3.53-2.124-6.511v-32.359c0-1.039.984-1.562 2.965-1.562h1.055c1.978 0 2.965.523 2.965 1.562m16.598 0v32.248c0 1.117.201 1.913.591 2.374.386.471.971.701 1.757.701a4.26 4.26 0 0 0 1.091-.14c.347-.091.601-.143.753-.143.448 0 .809.474 1.091 1.426.276.952.419 1.65.419 2.095 0 1.569-1.624 2.348-4.862 2.348-2.39 0-4.29-.679-5.699-2.039-1.422-1.361-2.124-3.53-2.124-6.511v-32.359c0-1.039.981-1.562 2.962-1.562h1.059c1.975 0 2.962.523 2.962 1.562m15.597 23.304h11.058c0-2.16-.419-3.835-1.257-5.027s-2.095-1.793-3.77-1.793c-3.507 0-5.511 2.277-6.031 6.82m15.059-8.492c1.958 2.611 2.933 6.131 2.933 10.561 0 .409-.325.997-.974 1.76-.656.763-1.172 1.143-1.539 1.143h-15.478c.182 2.501.874 4.3 2.062 5.397 1.195 1.098 2.907 1.65 5.144 1.65 1.231 0 2.319-.153 3.267-.451s1.926-.666 2.936-1.117c.594-.257.952-.39 1.062-.39.484 0 1.029.487 1.65 1.452.607.971.922 1.715.922 2.238 0 .708-.533 1.361-1.598 1.958-1.059.594-2.384 1.062-3.965 1.393s-3.079.507-4.498.507c-4.81 0-8.388-1.27-10.73-3.803-2.348-2.536-3.524-6.203-3.524-11.006 0-5.147 1.169-8.967 3.498-11.457 2.325-2.501 5.612-3.744 9.863-3.744 4.017 0 7.011 1.299 8.97 3.91m16.343 2.314c-.932.727-1.4 1.877-1.4 3.439 0 1.53.468 2.647 1.4 3.355s2.16 1.062 3.686 1.062 2.757-.354 3.689-1.062 1.4-1.825 1.4-3.355c0-1.562-.464-2.712-1.4-3.439s-2.16-1.088-3.689-1.088-2.757.364-3.686 1.088m-1.874 24.539c-.575.611-.864 1.309-.864 2.095 0 1.042.585 1.815 1.76 2.322 1.176.5 2.803.753 4.891.753 4.28 0 6.424-1.081 6.424-3.244 0-.971-.555-1.647-1.672-2.036-1.117-.396-2.965-.74-5.534-1.039l-2.631-.331c-1.003.373-1.796.864-2.374 1.481m9.528-30.374h9.392c.52 0 .896.185 1.146.559.24.37.36.987.36 1.841v.841c0 1.526-.425 2.293-1.289 2.293a19.72 19.72 0 0 1-2.955-.224l-.055.166c.334.448.588 1.013.779 1.705a7.82 7.82 0 0 1 .276 2.039c0 3.092-1.013 5.479-3.046 7.154s-4.758 2.514-8.181 2.514c-1.383 0-2.403.185-3.075.562s-1.007.965-1.007 1.783c0 .896.5 1.52 1.51 1.874 1.003.357 2.572.663 4.696.926l2.29.334c2.647.445 4.741 1.211 6.284 2.29s2.322 2.848 2.322 5.307c0 2.796-1.241 5.014-3.718 6.651s-5.836 2.458-10.087 2.458c-8.457 0-12.691-2.471-12.691-7.43 0-1.526.455-2.858 1.344-3.994.896-1.133 2.147-2.02 3.751-2.657l.052-.166c-1.565-.932-2.345-2.384-2.345-4.358 0-2.127 1.098-3.819 3.296-5.089-1.494-.783-2.637-1.861-3.439-3.241-.796-1.377-1.202-3.014-1.202-4.917 0-3.131 1.052-5.514 3.16-7.151s4.927-2.458 8.463-2.458c1.491 0 2.816.13 3.969.39m21.574 12.009h11.064c0-2.16-.422-3.835-1.26-5.027s-2.091-1.793-3.77-1.793c-3.504 0-5.511 2.277-6.034 6.82m15.059-8.492c1.958 2.611 2.936 6.131 2.936 10.561 0 .409-.328.997-.978 1.76s-1.166 1.143-1.536 1.143h-15.481c.185 2.501.877 4.3 2.065 5.397s2.91 1.65 5.144 1.65c1.231 0 2.316-.153 3.267-.451a26.96 26.96 0 0 0 2.936-1.117c.594-.257.952-.39 1.062-.39.481 0 1.029.487 1.65 1.452.607.971.919 1.715.919 2.238 0 .708-.529 1.361-1.595 1.958s-2.384 1.062-3.965 1.393-3.079.507-4.498.507c-4.806 0-8.388-1.27-10.733-3.803s-3.52-6.203-3.52-11.006c0-5.147 1.169-8.967 3.498-11.457 2.325-2.501 5.612-3.744 9.863-3.744 4.017 0 7.011 1.299 8.967 3.91"/></svg>